Patient4_TMGait_0pt4_01_left_29_GRF.mot
version=1
nRows=58
nColumns=19
inDegrees=no
endheader
time	F1x	F1y	F1z	M1x	M1y	M1z	F2x	F2y	F2z	M2x	M2y	M2z	EC1x	EC1y	EC1z	EC2x	EC2y	EC2z
35.47	11.152	-11.4401	-4.8904	1.9064	7.4033	-17.4595	-2.2588	741.2788	-77.5523	274.0967	82.9497	827.9093	-0.0592	0.0182	-0.0073	-0.0462	0.0165	0.9585
35.4826	7.6349	-7.0716	-3.2476	1.0422	4.9928	-11.0327	-2.4902	730.4982	-72.3621	269.0056	78.186	811.9719	-0.0592	0.0182	-0.0073	-0.0462	0.0165	0.9585
35.4953	4.6478	-3.375	-1.8687	0.30564	2.9482	-5.5812	-2.0565	720.5466	-67.4746	264.3431	73.2997	796.7249	-0.0592	0.0182	-0.0073	-0.0462	0.0165	0.9585
35.5079	2.3412	-0.54254	-0.81362	-0.26351	1.3676	-1.3779	-1.0905	713.053	-63.2963	260.7563	68.7285	784.204	-0.0592	0.0182	-0.0073	-0.0462	0.0165	0.9585
35.5206	0.73845	1.4345	-0.084975	-0.66646	0.26638	1.5615	0.18178	709.2876	-60.0218	258.7004	64.7832	775.9581	-0.0592	0.0182	-0.0073	-0.0462	0.0165	0.9585
35.5332	-0.28141	2.6699	0.37505	-0.92281	-0.43343	3.4145	1.5747	709.9013	-57.7166	258.3751	61.6502	772.7614	-0.0592	0.0182	-0.0073	-0.0462	0.0165	0.9585
35.5459	-0.84875	3.3202	0.61742	-1.0603	-0.81237	4.3989	2.966	714.8703	-56.342	259.7237	59.3872	774.5919	-0.0592	0.0182	-0.0073	-0.0462	0.0165	0.9585
35.5585	-1.1185	3.5356	0.72043	-1.1026	-0.98475	4.7387	4.3039	723.5574	-55.7895	262.4666	57.9458	780.7201	-0.0592	0.0182	-0.0073	-0.0462	0.0165	0.9585
35.5711	-1.2206	3.4308	0.72389	-1.0671	-1.024	4.6087	5.579	734.8734	-55.9019	266.1652	57.1998	789.9181	-0.0592	0.0182	-0.0073	-0.0462	0.0165	0.9585
35.5838	-1.2491	3.0624	0.68348	-0.95457	-1.007	4.1065	6.7761	747.4247	-56.5122	270.2818	57.0029	800.6453	-0.0592	0.0182	-0.0073	-0.0462	0.0165	0.9585
35.5964	-1.2815	2.4568	0.61189	-0.76018	-0.96869	3.3037	7.8693	759.6967	-57.45	274.248	57.1987	811.2505	-0.0592	0.0182	-0.0073	-0.0462	0.0165	0.9585
35.6091	-1.3286	1.5768	0.54016	-0.46307	-0.9401	2.1654	8.8266	770.269	-58.5643	277.5395	57.6474	820.2019	-0.0592	0.0182	-0.0073	-0.0462	0.0165	0.9585
35.6217	-1.4076	0.40368	0.4643	-0.049049	-0.91429	0.6933	9.6069	777.9897	-59.7104	279.7424	58.2157	826.259	-0.0592	0.0182	-0.0073	-0.0462	0.0165	0.9585
35.6344	-1.4583	-1.08	0.39997	0.49036	-0.878	-1.1392	10.1745	782.1001	-60.7853	280.5984	58.8115	828.612	-0.0592	0.0182	-0.0073	-0.0462	0.0165	0.9585
35.647	-1.4145	-2.8099	0.32158	1.1322	-0.77957	-3.2477	10.5327	782.3101	-61.7309	280.0245	59.3801	826.9488	-0.0592	0.0182	-0.0073	-0.0462	0.0165	0.9585
35.6596	-1.1415	-4.6106	0.22722	1.8091	-0.56807	-5.439	10.7171	778.8067	-62.5469	278.1169	59.9131	821.4476	-0.0592	0.0182	-0.0073	-0.0462	0.0165	0.9585
35.6723	-0.48167	-6.1099	0.09513	2.3793	-0.16286	-7.258	10.8013	772.2547	-63.2641	275.1458	60.4206	812.7815	-0.0592	0.0182	-0.0073	-0.0462	0.0165	0.9585
35.6849	0.75576	-6.6999	-0.074155	2.6077	0.50516	-7.9608	10.9137	763.6199	-63.9457	271.491	60.9268	801.9258	-0.0592	0.0182	-0.0073	-0.0462	0.0165	0.9585
35.6976	2.7679	-5.4554	-0.27807	2.1411	1.5018	-6.4193	11.1685	753.9073	-64.6333	267.5474	61.433	789.8971	-0.0592	0.0182	-0.0073	-0.0462	0.0165	0.9585
35.7102	5.7011	-1.1306	-0.49519	0.50702	2.854	-1.1069	11.6922	743.8941	-65.3288	263.6241	61.8973	777.4724	-0.0592	0.0182	-0.0073	-0.0462	0.0165	0.9585
35.7229	9.606	7.7785	-0.6837	-2.8654	4.5251	9.7992	12.5629	733.9347	-65.962	259.8704	62.2205	765.0208	-0.0592	0.0182	-0.0073	-0.0462	0.0165	0.9585
35.7355	14.2818	22.8928	-0.76669	-8.5896	6.3472	28.2658	13.8172	723.8093	-66.425	256.2226	62.2781	752.3444	-0.0592	0.0182	-0.0073	-0.0462	0.0165	0.9585
35.7481	19.1895	45.5587	-0.62587	-17.182	7.9776	55.9113	15.4124	712.7513	-66.5617	252.4068	61.9263	738.7224	-0.0592	0.0182	-0.0073	-0.0462	0.0165	0.9585
35.7608	23.2255	76.329	-0.11497	-28.8576	8.8354	93.4053	17.2278	699.5561	-66.1995	247.9777	61.0299	723.0085	-0.0592	0.0182	-0.0073	-0.0462	0.0165	0.9585
35.7734	24.7192	114.2149	0.95435	-43.2488	8.0853	139.5041	19.074	682.8362	-65.1452	242.4155	59.4556	703.8932	-0.0592	0.0182	-0.0073	-0.0462	0.0165	0.9585
35.7861	22.1473	156.4481	2.8891	-59.2983	4.8097	190.8306	20.7487	661.3805	-63.2354	235.2591	57.1093	680.2548	-0.0592	0.0182	-0.0073	-0.0462	0.0165	0.9585
35.7987	15.9333	199.7584	6.2609	-75.7221	-1.4974	243.3585	22.1027	634.5441	-60.3583	226.2482	53.9366	651.51	-0.0592	0.0182	-0.0073	-0.0462	0.0165	0.9585
35.8114	7.6579	242.1493	11.2548	-91.7536	-10.4269	294.449	23.0503	602.412	-56.5489	215.3793	50.0023	617.772	-0.0592	0.0182	-0.0073	-0.0462	0.0165	0.9585
35.824	-1.2482	284.2131	17.3157	-107.6302	-20.7903	344.5893	23.6332	565.5584	-52.0053	202.8155	45.4835	579.5821	-0.0592	0.0182	-0.0073	-0.0462	0.0165	0.9585
35.8366	-9.688	327.7284	23.8034	-124.0573	-31.4039	395.8108	23.8966	524.6271	-46.994	188.7436	40.6118	537.5242	-0.0592	0.0182	-0.0073	-0.0462	0.0165	0.9585
35.8493	-16.8934	373.9696	30.0801	-141.5527	-41.2356	449.6263	23.8121	480.0557	-41.7387	173.284	35.594	491.959	-0.0592	0.0182	-0.0073	-0.0462	0.0165	0.9585
35.8619	-22.4466	422.8603	35.7915	-160.105	-49.7105	505.9259	23.2489	432.1626	-36.3959	156.5197	30.605	443.1469	-0.0592	0.0182	-0.0073	-0.0462	0.0165	0.9585
35.8746	-26.1899	473.1412	40.7578	-179.2416	-56.5777	563.1761	22.0058	381.3561	-31.0846	138.5766	25.8096	391.4445	-0.0592	0.0182	-0.0073	-0.0462	0.0165	0.9585
35.8872	-28.1245	523.1923	45.1248	-198.3272	-62.0202	619.4457	19.8608	328.4189	-25.9394	119.7236	21.4003	337.5979	-0.0592	0.0182	-0.0073	-0.0462	0.0165	0.9585
35.8999	-28.3857	571.6143	49.0843	-216.8045	-66.3388	673.1331	16.7025	274.7091	-21.1207	100.4469	17.5722	282.9493	-0.0592	0.0182	-0.0073	-0.0462	0.0165	0.9585
35.9125	-27.2082	617.4016	52.8261	-234.2693	-69.8627	723.1605	12.5955	222.1409	-16.7937	81.4506	14.481	229.4126	-0.0592	0.0182	-0.0073	-0.0462	0.0165	0.9585
35.9251	-24.934	659.8006	56.4246	-250.4215	-72.8325	768.7556	7.8189	172.9898	-13.0834	63.5799	12.1792	179.2816	-0.0592	0.0182	-0.0073	-0.0462	0.0165	0.9585
35.9378	-22.0265	698.0256	59.9435	-264.9607	-75.4974	809.1448	2.8995	129.4049	-10.0514	47.6434	10.5748	134.7248	-0.0592	0.0182	-0.0073	-0.0462	0.0165	0.9585
35.9504	-18.9292	731.3156	63.2985	-277.6131	-77.9273	843.5687	-1.5764	92.8445	-7.6412	34.2086	9.4342	97.2342	-0.0592	0.0182	-0.0073	-0.0462	0.0165	0.9585
35.9631	-15.9496	759.0907	66.3	-288.182	-80.0119	871.4664	-5.1189	63.7721	-5.7471	23.4837	8.5027	67.2924	-0.0592	0.0182	-0.0073	-0.0462	0.0165	0.9585
35.9757	-13.2361	780.9414	68.649	-296.5493	-81.4599	892.4511	-7.5022	41.8136	-4.2373	15.3608	7.5828	44.5564	-0.0592	0.0182	-0.0073	-0.0462	0.0165	0.9585
35.9884	-10.8485	796.6528	70.1079	-302.6613	-82.0129	906.3542	-8.7144	25.9881	-3.0285	9.5009	6.5939	28.0638	-0.0592	0.0182	-0.0073	-0.0462	0.0165	0.9585
36.001	-8.7826	806.153	70.5382	-306.5068	-81.5053	913.1612	-8.8422	15.0499	-2.0564	5.455	5.5052	16.5777	-0.0592	0.0182	-0.0073	-0.0462	0.0165	0.9585
36.0136	-7.0174	809.5619	70.0009	-308.1267	-79.9844	913.081	-8.0205	7.7551	-1.2914	2.7671	4.3322	8.8436	-0.0592	0.0182	-0.0073	-0.0462	0.0165	0.9585
36.0263	-5.5076	807.2962	68.672	-307.657	-77.6248	906.6362	-6.4991	3.0841	-0.70746	1.0608	3.1309	3.8255	-0.0592	0.0182	-0.0073	-0.0462	0.0165	0.9585
36.0389	-4.1825	800.1228	66.8014	-305.3592	-74.6816	894.7374	-4.7003	0.3629	-0.29901	0.079978	2.0382	0.84788	-0.0592	0.0182	-0.0073	-0.0462	0.0165	0.9585
36.0516	-2.9592	789.1455	64.6178	-301.6261	-71.3862	878.6545	-2.9983	-0.92938	-0.043814	-0.37486	1.1567	-0.60908	-0.0592	0.0182	-0.0073	-0.0462	0.0165	0.9585
36.0642	-1.7415	775.8026	62.3131	-296.9806	-67.9266	860.0166	-1.5915	-1.2781	0.089069	-0.48597	0.51632	-1.0444	-0.0592	0.0182	-0.0073	-0.0462	0.0165	0.9585
36.0769	-0.44182	761.7315	60.0123	-292.0271	-64.4224	840.6619	-0.53388	-1.0679	0.14217	-0.39711	0.085507	-0.86932	-0.0592	0.0182	-0.0073	-0.0462	0.0165	0.9585
36.0895	1.0033	748.5399	57.825	-287.3633	-60.985	822.3766	0.19234	-0.57368	0.14295	-0.21178	-0.17623	-0.38001	-0.0592	0.0182	-0.0073	-0.0462	0.0165	0.9585
36.1021	2.6021	737.588	55.8677	-283.4937	-57.7483	806.6632	0.64292	-0.0047548	0.12138	-0.0032857	-0.31907	0.19293	-0.0592	0.0182	-0.0073	-0.0462	0.0165	0.9585
36.1148	4.3251	729.7999	54.2635	-280.7595	-54.865	794.5392	0.87549	0.53351	0.089988	0.19088	-0.37719	0.74772	-0.0592	0.0182	-0.0073	-0.0462	0.0165	0.9585
36.1274	6.115	725.6245	53.1144	-279.3226	-52.4698	786.4924	0.97115	0.98733	0.061175	0.35399	-0.38872	1.225	-0.0592	0.0182	-0.0073	-0.0462	0.0165	0.9585
36.1401	7.9206	725.0936	52.4647	-279.1913	-50.6304	782.5302	0.9649	1.3388	0.040551	0.48208	-0.37193	1.6082	-0.0592	0.0182	-0.0073	-0.0462	0.0165	0.9585
36.1527	9.698	727.8765	52.2821	-280.243	-49.3271	782.2627	0.90567	1.6083	0.029158	0.58251	-0.34113	1.9092	-0.0592	0.0182	-0.0073	-0.0462	0.0165	0.9585
36.1654	11.4169	733.3667	52.4848	-282.2542	-48.4805	785.0065	0.81783	1.8326	0.022014	0.66653	-0.29668	2.165	-0.0592	0.0182	-0.0073	-0.0462	0.0165	0.9585
36.178	13.0688	740.7711	52.9622	-284.9342	-47.9739	789.8814	0.70516	2.0159	0.017337	0.73658	-0.24437	2.3816	-0.0592	0.0182	-0.0073	-0.0462	0.0165	0.9585
36.1906	14.667	749.177	53.5954	-287.9495	-47.677	795.8916	0.58617	2.1669	0.010366	0.79402	-0.19044	2.5682	-0.0592	0.0182	-0.0073	-0.0462	0.0165	0.9585
